<?xml version="1.0" standalone="no"?>
<!DOCTYPE svg PUBLIC "-//W3C//DTD SVG 20010904//EN"
 "http://www.w3.org/TR/2001/REC-SVG-20010904/DTD/svg10.dtd">
<svg version="1.0" xmlns="http://www.w3.org/2000/svg"
 width="600.000000pt" height="600.000000pt" viewBox="0 0 600.000000 600.000000"
 preserveAspectRatio="xMidYMid meet">

<g transform="translate(0.000000,600.000000) scale(0.100000,-0.100000)"
fill="#000000" stroke="none">
<path d="M2595 5648 c-239 -230 -466 -462 -691 -705 -217 -234 -457 -480 -682
-697 -191 -184 -516 -504 -722 -710 l-375 -376 206 -207 c113 -115 307 -316
431 -448 248 -263 554 -568 833 -831 l180 -169 5 679 5 678 584 -611 c322
-336 587 -611 590 -611 3 0 282 276 618 612 l613 613 0 -678 c0 -372 4 -677 8
-677 13 0 871 867 1052 1063 107 116 245 249 393 379 125 111 227 204 227 207
0 15 -844 845 -1100 1081 -157 145 -487 464 -735 710 -499 495 -1062 1040
-1076 1040 -5 0 -169 -154 -364 -342z m803 -1397 c502 -470 1122 -1086 1107
-1100 -112 -106 -310 -281 -316 -279 -7 2 -442 416 -1122 1067 l-108 105 -589
-589 -589 -589 -28 25 c-15 14 -86 79 -158 144 -71 65 -132 120 -135 122 -4 3
1491 1503 1498 1503 2 0 200 -184 440 -409z"/>
<path d="M1170 1281 c0 -17 69 -151 78 -151 4 0 13 5 19 11 11 11 51 -5 107
-44 28 -20 86 -129 101 -190 l7 -27 -385 0 -385 0 26 -80 26 -80 133 0 133 0
0 -93 c0 -92 -1 -94 -26 -106 -22 -10 -30 -9 -45 5 -21 19 -79 13 -100 -12
-19 -23 13 -114 59 -167 20 -24 84 -112 142 -195 l104 -152 38 37 c21 21 36
43 34 49 -3 7 -44 63 -92 124 l-88 113 36 32 c19 18 38 40 41 49 6 14 14 12
57 -18 55 -38 112 -51 191 -44 l49 5 0 -106 0 -106 75 -63 c41 -34 77 -62 80
-62 3 0 5 160 5 355 l0 355 390 0 390 0 0 -51 0 -52 -48 7 c-26 3 -68 3 -93 0
-39 -5 -48 -11 -67 -45 -27 -46 -34 -48 -52 -13 -38 69 -164 98 -247 55 -84
-42 -116 -117 -102 -236 13 -107 64 -202 139 -260 33 -25 72 -61 86 -80 15
-19 30 -35 34 -35 4 0 11 15 16 32 9 32 7 35 -48 86 -137 127 -154 314 -34
372 41 19 44 19 97 4 52 -16 53 -17 27 -26 -19 -7 -32 -22 -44 -54 -9 -24 -15
-46 -13 -48 2 -1 33 -14 69 -28 l65 -26 10 26 c29 76 76 124 148 151 59 22 57
28 57 -177 l0 -189 80 -67 80 -67 0 361 0 360 90 0 c55 0 90 4 90 10 0 6 -16
42 -35 80 l-35 70 -537 2 -536 3 -39 64 c-22 34 -52 97 -69 138 -48 121 -75
168 -106 182 -38 18 -183 28 -183 12z m258 -657 c-3 -92 -4 -98 -30 -117 -19
-14 -48 -21 -102 -25 l-76 -5 0 122 0 121 105 0 106 0 -3 -96z"/>
<path d="M3255 864 c-100 -35 -158 -118 -158 -224 0 -120 44 -177 188 -247
101 -49 114 -57 138 -93 21 -30 22 -101 3 -139 -19 -35 -55 -51 -119 -51 -84
0 -157 62 -157 133 0 15 -6 27 -12 27 -8 0 -19 -31 -29 -81 l-15 -82 29 -17
c75 -46 238 -46 327 0 128 65 184 203 129 316 -26 54 -58 78 -196 147 -62 32
-120 68 -133 84 -51 64 7 178 97 190 59 8 99 -17 128 -78 l23 -50 20 25 c23
29 38 94 25 107 -5 5 -35 18 -66 29 -66 23 -163 25 -222 4z"/>
<path d="M3936 848 c-8 -18 -66 -159 -129 -313 -102 -247 -177 -438 -177 -451
0 -2 24 -4 54 -4 l54 0 30 82 c16 46 33 93 36 106 7 21 11 22 146 22 l138 0
30 -82 c16 -46 33 -93 36 -105 7 -22 13 -23 102 -23 52 0 94 2 94 5 0 24 -286
734 -317 787 -2 4 -13 2 -23 -4 -15 -10 -22 -10 -32 0 -19 19 -28 15 -42 -20z
m42 -283 c13 -35 41 -92 63 -125 21 -33 39 -63 39 -65 0 -3 -52 -5 -115 -5
-63 0 -115 4 -115 9 0 4 13 37 29 72 16 35 37 90 47 122 10 31 20 57 23 57 4
0 17 -29 29 -65z"/>
<path d="M4460 470 l0 -390 95 0 95 0 -2 387 -3 388 -92 3 -93 3 0 -391z"/>
<path d="M4817 818 c10 -55 11 -651 0 -700 l-8 -38 226 0 225 0 0 40 c0 47 8
46 -144 25 -60 -8 -113 -12 -118 -9 -19 12 -5 609 17 697 l7 27 -107 0 -107 0
9 -42z"/>
</g>
</svg>
